<?xml version="1.0" encoding="utf-8"?>
<svg version="1.1" xmlns="http://www.w3.org/2000/svg" xmlns:xlink="http://www.w3.org/1999/xlink" height="45.70463010947856" width="36.853751023620134">
  <defs>
    <path id="path-1" opacity="1" fill-rule="evenodd" d="M0,11.352315054739279 L24,11.352315054739279 L24,35.35231505473928 L0,35.35231505473928 L0,11.352315054739279Z"/>
    <path id="path-2" opacity="1" fill-rule="evenodd" d="M20.01,26.732315054739278 C18.78,26.732315054739278 17.590000000000003,26.53231505473928 16.48,26.17231505473928 C16.13,26.052315054739278 15.740000000000002,26.142315054739278 15.47,26.412315054739278 L13.900000000000002,28.38231505473928 C11.07,27.03231505473928 8.42,24.482315054739278 7.010000000000001,21.552315054739278 L8.96,19.892315054739278 C9.23,19.612315054739277 9.31,19.222315054739276 9.200000000000001,18.87231505473928 C8.830000000000002,17.76231505473928 8.64,16.572315054739278 8.64,15.342315054739279 C8.64,14.802315054739278 8.190000000000001,14.352315054739279 7.65,14.352315054739279 L4.19,14.352315054739279 C3.65,14.352315054739277 3,14.592315054739277 3,15.342315054739277 C3,24.632315054739276 10.73,32.35231505473928 20.01,32.35231505473928 C20.720000000000002,32.35231505473928 21,31.722315054739276 21,31.17231505473928 L21,27.722315054739276 C21,27.182315054739277 20.55,26.732315054739278 20.01,26.732315054739278Z"/>
    <path id="path-3" opacity="1" fill-rule="evenodd" d="M34.00143596887938,2.352315054739279 L34.00143596887938,43.352315054739286 "/>
  </defs>
  <g opacity="1">
    <g opacity="1">
      <g opacity="1"/>
      <g opacity="1">
        <use xlink:href="#path-2" fill="rgb(158,158,158)" fill-opacity="1"/>
      </g>
    </g>
    <g opacity="1">
      <use xlink:href="#path-3" fill-opacity="0" stroke="rgb(151,151,151)" stroke-opacity="1" stroke-width="1"/>
    </g>
  </g>
</svg>