<svg xmlns="http://www.w3.org/2000/svg" xmlns:xlink="http://www.w3.org/1999/xlink" width="190" height="191" viewBox="0 0 190 191">
    <defs>
        <path id="a" d="M0 190.784h189.5V0H0z"/>
    </defs>
    <g fill="none" fill-rule="evenodd" opacity=".1">
        <path stroke="#024B68" stroke-linecap="round" stroke-linejoin="round" stroke-width=".5" d="M101.085 15.514l-3.48-1.196 1.174-6.211-3.027 5.574-1.398-.48-1.935 2.836c.144-2.962.456-5.552.79-8.677l-4.424 6.845.001-2.918-1.419-.488-1.07-.368 14.788 5.083zm-7.45 6.813l.95-2.761-.95 2.76zm-4.697-1.615l.95-2.76-.95 2.76zm-2.472-.327l9.321 3.203-9.32-3.203zm20.347-12.343l-4.765 13.864-19.834-6.816L86.98 1.225l19.834 6.817zM132.35 86.06l7.75 18.563a.725.725 0 0 1-.39.947l-12.62 5.268a.725.725 0 0 1-.946-.389l-7.75-18.563a.726.726 0 0 1 .39-.946l12.62-5.269a.726.726 0 0 1 .947.39z"/>
        <path stroke="#024B68" stroke-linecap="round" stroke-linejoin="round" stroke-width=".5" d="M126.892 94.73l1.505-.629a.642.642 0 0 1 .838.344l.795 1.906 1.905-.796a.642.642 0 0 1 .838.344l.628 1.505a.642.642 0 0 1-.344.839l-1.905.794.795 1.905a.642.642 0 0 1-.344.839l-1.505.627a.642.642 0 0 1-.838-.344l-.795-1.904-1.906.794a.64.64 0 0 1-.837-.343l-.629-1.505a.644.644 0 0 1 .345-.838l1.905-.796-.795-1.904a.642.642 0 0 1 .344-.838zM135.003 92.31l1.914-.799a1.187 1.187 0 0 1 1.549.637l1.606 3.847a1.195 1.195 0 0 1-.637 1.55l-1.914.798M174.012 48.389c-.471-.234-.974-.731-1.106-1.562a1.98 1.98 0 0 1-.024-.273l-5.927-.387 2.657 5.38c.125-.062.247-.112.367-.147.704-.206 1.403.104 1.832.44M160.269 53.648c2.845 2.65 5.026 2.29 9.343-2.1M172.882 46.554l.748-2.526c1.233-4.224.724-5.86-2.713-7.011M162.531 51.232l1.867-2.915"/>
        <path stroke="#024B68" stroke-linecap="round" stroke-linejoin="round" stroke-width=".5" d="M182.372 52.227c-.421-1.147-2.606-3.166-3.567-3.78-1.826-1.17-4.831-.773-6.16 1.302-1.328 2.074-.924 4.703.9 5.872 1.826 1.17 3.002 1.82 4.33-.254.49-.767 2.524-3.155 3.954-2.227M183.674 49.748c-.623-4.923-6.034-8.14-8.964-7.421M177.237 59.801c-4.732 1.495-9.918-2.073-10.492-5.035"/>
        <path stroke="#024B68" stroke-width=".5" d="M186.627 52.294l-5.841 9.123c-.168.262-.473.347-.698.224l-2.591-1.41c-.226-.124-.303-.507-.09-.728 2.497-2.566 4.709-5.925 6.068-9.475.11-.288.49-.378.698-.224l2.365 1.762c.206.154.257.466.089.728z"/>
        <path stroke="#024B68" stroke-linecap="round" stroke-linejoin="round" stroke-width=".5" d="M18.024 72.051l-6.97-4.092a.941.941 0 0 0-1.286.334l-5.722 9.746a.943.943 0 0 0 .335 1.286l6.971 4.092a.94.94 0 0 0 1.285-.335l5.722-9.746a.942.942 0 0 0-.335-1.285zM17.96 64.175l-3.421 5.83M7.867 81.37L5.81 84.874M10.041 87.527l-8.61-5.054M17.185 75.336L14.14 73.55M15.535 78.147L12.49 76.36M13.885 80.957l-3.044-1.787M182.25 185.992c-1.54-.178-3.06-.947-4.195-2.265-1.134-1.319-1.667-2.936-1.613-4.486.054-1.55.696-3.032 1.913-4.079 1.217-1.047 2.778-1.46 4.32-1.282 1.54.178 3.06.947 4.193 2.265 1.134 1.318 1.668 2.936 1.614 4.486M168.303 179.512c-1.736-2.018-1.368-5.213.822-7.097 2.19-1.884 5.483-1.714 7.221.306l2.057 2.39M171.806 183.656a2.495 2.495 0 1 1-3.254-3.782 2.495 2.495 0 0 1 3.254 3.782zM189.025 182.087a.647.647 0 1 1-.844-.98.647.647 0 0 1 .844.98zM183.609 186.746a.647.647 0 1 1-.844-.98.647.647 0 0 1 .844.98z"/>
        <path stroke="#024B68" stroke-linecap="round" stroke-linejoin="round" stroke-width=".5" d="M170.523 182.15a.43.43 0 1 1-.56-.652.43.43 0 0 1 .56.651zM123.533 35.583h14.48c.944 0 1.717.773 1.717 1.718v6.012c0 .945-.773 1.718-1.717 1.718h-14.48a1.722 1.722 0 0 1-1.718-1.718V37.3c0-.944.773-1.717 1.718-1.717zM137.951 45.714v.886c0 3.299 4.804 3.45 4.804 6.275v15.31M138.87 72.78h-17.576c-1.374 0-2.504-1.093-2.504-2.43V52.876c0-2.831 4.804-2.974 4.804-6.276v-.885"/>
        <mask id="b" fill="#fff">
            <use xlink:href="#a"/>
        </mask>
        <path stroke="#024B68" stroke-linecap="round" stroke-linejoin="round" stroke-width=".5" d="M118.79 67.216h14.805V55.191H118.79zM152.392 57.392l4.622 3.853a3.303 3.303 0 0 1 .42 4.638 3.304 3.304 0 0 1-4.638.42l-4.62-3.852a3.303 3.303 0 0 1-.422-4.638 3.303 3.303 0 0 1 4.638-.421z" mask="url(#b)"/>
        <path stroke="#024B68" stroke-width=".5" d="M154.933 59.043l-4.677 5.61" mask="url(#b)"/>
        <path stroke="#024B68" stroke-linecap="round" stroke-linejoin="round" stroke-width=".5" d="M148.217 75.443H142.2a3.304 3.304 0 0 1-3.293-3.293 3.304 3.304 0 0 1 3.293-3.293h6.017a3.304 3.304 0 0 1 3.293 3.293 3.303 3.303 0 0 1-3.293 3.293z" mask="url(#b)"/>
        <path stroke="#024B68" stroke-width=".5" d="M145.209 75.802v-7.304M123.34 123.186l4.212-4.213a3.258 3.258 0 0 1 4.595 0l21.352 21.352a3.26 3.26 0 0 1 0 4.596l-4.213 4.213a3.26 3.26 0 0 1-4.596 0l-21.35-21.351a3.26 3.26 0 0 1 0-4.597zM129.444 134.22l-6.105 6.105a3.26 3.26 0 0 0 0 4.596l4.213 4.212a3.26 3.26 0 0 0 4.596.001l6.172-6.173" mask="url(#b)"/>
        <path stroke="#024B68" stroke-width=".5" d="M147.38 133.902l6.119-6.12a3.26 3.26 0 0 0 0-4.595l-4.212-4.213a3.26 3.26 0 0 0-4.596 0l-6.424 6.424" mask="url(#b)"/>
        <path stroke="#024B68" stroke-linecap="round" stroke-linejoin="round" stroke-width=".5" d="M145.334 136.622l-4.346 4.347M135.85 127.139l-4.346 4.346M126.266 125.219a.501.501 0 1 1 1.002 0 .501.501 0 0 1-1.002 0zM129.083 128.036a.5.5 0 1 1 1.001 0 .5.5 0 0 1-1 0zM129.083 122.402a.5.5 0 1 1 1.001-.001.5.5 0 0 1-1.001 0zM131.9 125.219a.501.501 0 1 1 1.003 0 .501.501 0 0 1-1.003 0zM143.936 142.889a.501.501 0 1 1 1.002 0 .501.501 0 0 1-1.002 0zM146.753 145.706a.501.501 0 1 1 1.003 0 .501.501 0 0 1-1.003 0zM146.753 140.072a.5.5 0 1 1 1.001-.001.5.5 0 0 1-1.001 0zM149.57 142.889a.501.501 0 1 1 1.003 0 .501.501 0 0 1-1.003 0zM150.572 125.219a.501.501 0 1 0-1.003 0 .501.501 0 0 0 1.003 0zM147.754 128.036a.5.5 0 1 0-1 0 .5.5 0 0 0 1 0zM147.755 122.402a.5.5 0 1 0-1.002-.001.5.5 0 0 0 1.002 0zM144.937 125.219a.501.501 0 1 0-1.002 0 .501.501 0 0 0 1.002 0zM132.902 142.889a.501.501 0 1 0-1.003 0 .501.501 0 0 0 1.003 0zM130.084 145.706a.501.501 0 1 0-1.002 0 .501.501 0 0 0 1.002 0zM130.085 140.072a.5.5 0 1 0-1.002-.001.5.5 0 0 0 1.002 0zM127.267 142.889a.501.501 0 1 0-1.002 0 .501.501 0 0 0 1.002 0zM91.744 28.641l3.66 2.01-7.5 13.663a2.093 2.093 0 0 1-2.834.825h-.001a2.094 2.094 0 0 1-.825-2.834l7.5-13.664zM91.304 28.4l4.538 2.492M86.77 38.97l2.59 1.422M97.826 31.98l3.66 2.009-7.5 13.664a2.093 2.093 0 0 1-2.834.825h-.001a2.094 2.094 0 0 1-.825-2.834l7.5-13.664zM97.386 31.739l4.538 2.491M93.245 41.593l2.59 1.421M103.908 35.318l3.66 2.009-7.5 13.664a2.093 2.093 0 0 1-2.834.825 2.093 2.093 0 0 1-.826-2.834l7.5-13.664zM103.468 35.077l4.538 2.491M99.032 45.468l2.59 1.422" mask="url(#b)"/>
        <path stroke="#024B68" stroke-linecap="round" stroke-linejoin="round" stroke-width=".5" d="M85.973 33.606l20.504 11.255-7.366 13.42-20.504-11.255zM20.047 105.983A7.043 7.043 0 0 1 7.67 99.75a7.04 7.04 0 0 1 13.776 1.511l7.341 2.173-1.398 4.723-7.34-2.174zM29.078 102.458l-1.977 6.677M19.713 97.109l-3.38 11.413" mask="url(#b)"/>
        <path stroke="#024B68" stroke-linecap="round" stroke-linejoin="round" stroke-width=".5" d="M13.829 113.386c-3.267 1.062-7.185 1.878-10.56 2.776-1.156.308-2.789-1.68-2.439-2.864l3.385-11.433c.351-1.183 2.798-1.968 3.606-1.074 2.346 2.594 5.173 5.403 7.345 8.075l6.648 1.97-1.338 4.518-6.647-1.968zM22.055 110.019l-1.822 6.153M11.837 105.439l-2.745 9.271M72.697 188.083c-7.323 0-11.108-3.591-14.741-8.041M53.935 175.028c-3.552-4.253-7.63-7.905-14.785-7.905M72.697 167.123c-16.93 0-16.402 20.96-33.547 20.96M70.251 186.786v-15.365M65.716 186.157v-13.212M61.18 182.861v-5.564M50.91 178.02v-5.563M46.374 182.178v-13.212M41.839 183.97v-15.365M15.17 3.173c2.912.672 5.195 2.217 5.211 5.395a5.746 5.746 0 0 1-1.667 4.087c-3.46 3.497-5.236.547-6.134.55.006.898 2.975 2.643-.485 6.14a5.753 5.753 0 0 1-4.069 1.71c-7.76.041-5.922-13.526-5.33-16.788.161-.883-.003-.69.922-.866 1.248-.236 3.842-.642 6.625-.676" mask="url(#b)"/>
        <path stroke="#024B68" stroke-linecap="round" stroke-linejoin="round" stroke-width=".5" d="M14.908 1.002L11.754 4.19l4.144 5.751-5.925-3.953L8.63 7.345 5.451 5.85c1.274 2.762 2.068 4.541 3.609 7.34l-4.058-2.178-2.753 2.783M14.445 127.476l11.072 12.943c.573.669.597 1.597.055 2.06l-10.483 8.969c-.543.464-1.455.295-2.028-.374l-5.748-6.72-7.063-.82 3.673-3.142-1.934-2.261c-.573-.67-.598-1.597-.055-2.061l10.483-8.968c.543-.464 1.455-.296 2.028.374zM9.604 136.902l5.213-4.459M13.157 136.166l-.457 9.954M16.73 142.673l-7.704-.848" mask="url(#b)"/>
        <path stroke="#024B68" stroke-linecap="round" stroke-linejoin="round" stroke-width=".5" d="M14.806 132.43l2.505 2.928c.64.747.656 1.793.036 2.323l-.544.465c-.62.53-1.65.353-2.29-.395l-2.505-2.929M65.42 40.224a3.557 3.557 0 0 1-2.571 4.3l-14.73 3.704c-1.045.263-3.002-1.607-4.047-1.344l-3.6.905a1.257 1.257 0 0 1-1.52-.909 1.256 1.256 0 0 1 .909-1.52l3.6-.905c1.047-.263 1.884-2.835 2.93-3.099l14.73-3.704a3.553 3.553 0 0 1 4.3 2.572zM58.49 41.967l-12.867 3.236M57.288 38.617l.352 1.4M54.463 39.327l.352 1.4M51.638 40.037l.352 1.4M48.813 40.748l.352 1.4M51.89 121.672l-4.766.405c-1.022.086-1.92-.582-1.997-1.486L44.1 108.49c-.307-3.615 2.786-6.856 6.874-7.203l4.208-.357c4.088-.347 7.683 2.326 7.99 5.94l1.027 12.102c.077.904-.696 1.714-1.718 1.8l-4.94.42M40.94 96.883l8.492-.721a3.39 3.39 0 0 1 3.651 3.08l.14 1.639" mask="url(#b)"/>
        <path stroke="#024B68" stroke-linecap="round" stroke-linejoin="round" stroke-width=".5" d="M54.981 123.523a1.917 1.917 0 1 1-.324-3.82 1.917 1.917 0 0 1 .324 3.82zM44.662 115.116c10.382-4.171 9.94 3.948 19.072-1.62M52.252 110.689l3.532-.3M51.992 107.636l3.533-.3M51.733 104.584l3.532-.3M182.357 82.045l3.81.43.56-4.968-14.539-1.642-.56 4.968 5.404.61M169.864 80.376l.505-4.458" mask="url(#b)"/>
        <path stroke="#024B68" stroke-width=".5" d="M181.637 80.087a2.46 2.46 0 1 1-3.848 3.066 2.46 2.46 0 0 1 3.848-3.067z" mask="url(#b)"/>
        <path stroke="#024B68" stroke-linecap="round" stroke-linejoin="round" stroke-width=".5" d="M179.625 84.71c-.905 3.944-2.893 4.72-6.304 5.464l.196.245c.659.827.569 2.007-.2 2.619l-.63.502-12.196-15.3.63-.502c.77-.613 1.939-.438 2.599.39l6.996 8.778c3.232-.24 5.227-.854 6.738-3.826M137.24 176.227l2.056 3.5M136.518 179.006l3.5-2.057M144.339 166.965c1.272-.78 5.889.702 7.3 1.147 1.014.32 2.209 1.813 2.747 2.729l2.82 4.8a1.128 1.128 0 0 1-.395 1.526l-.546.32a4.436 4.436 0 1 0-7.358 4.324l-5.154 3.03a4.435 4.435 0 0 0-7.357 4.323l-.547.322a1.125 1.125 0 0 1-1.525-.397l-6.488-11.04c-.31-.527-.161-1.267.366-1.576 8.586-5.046 11.82-6.863 16.137-9.508z" mask="url(#b)"/>
        <path stroke="#024B68" stroke-linecap="round" stroke-linejoin="round" stroke-width=".5" d="M152.156 178.918a2.29 2.29 0 1 1 2.319 3.948 2.29 2.29 0 0 1-2.319-3.948zM139.645 186.27a2.288 2.288 0 0 1 3.133.815 2.288 2.288 0 1 1-3.947 2.319 2.29 2.29 0 0 1 .814-3.133zM142.648 167.802l3.573 6.079c.33.564 1.097.808 1.659.478 2.49-1.464 4.539-2.675 6.295-3.715M139.251 165.779a1.774 1.774 0 0 1 2.42.628l.946 1.61-3.049 1.791-.945-1.609a1.773 1.773 0 0 1 .628-2.42zM136.963 161.886l1.1 1.87M134.25 165.17l2.044.726M134.284 169.43l2.031-.758M141.153 161.113l-.36 2.14M144.858 163.215l-1.65 1.407M19.247 49.748l-2.241-.896c-.485-.193-.71-.777-.503-1.296l1.218-3.047-2.837-1.134c-.484-.194-.71-.777-.502-1.297l.962-2.407c.208-.52.773-.786 1.258-.593l2.837 1.134 1.217-3.046c.208-.52.774-.787 1.258-.594l2.24.896c.485.194.71.777.503 1.297L23.44 41.81l2.837 1.135c.484.193.71.776.503 1.296l-.962 2.407c-.208.52-.774.787-1.258.593l-2.838-1.134-1.217 3.047c-.208.52-.774.786-1.258.593z" mask="url(#b)"/>
        <path stroke="#024B68" stroke-width=".5" d="M18.523 25.762l2.628 1.566c.425.253.587.806.401 1.286l-.002.005-.004.009a1.148 1.148 0 0 1-.06.122l-2.779 4.889c-.29.51-.913.698-1.384.417-2.492-1.485-2.542-2.52-4.702.963-1.057 1.705-1.978 3.749-2.117 4.086v.002l-.006.014-.006.015-.006.015v.002c-.133.34-.875 2.455-1.284 4.42-.836 4.012-.086 3.297 2.743 3.938.535.122.856.687.715 1.257l-1.357 5.456a1.09 1.09 0 0 1-.04.13l-.004.009-.002.005c-.196.477-.694.766-1.177.656l-2.983-.677a3.692 3.692 0 0 1-.395-.113c-3.115-1.317-2.237-9.24.388-16.466 3.08-7.045 7.904-13.39 11.07-12.197.121.056.242.119.363.19z" mask="url(#b)"/>
        <path stroke="#024B68" stroke-linecap="round" stroke-linejoin="round" stroke-width=".5" d="M21.69 32.927c2.964.128 6.671.285 7.47.604l2.05.82c1.601.64 2.424 2.39 1.827 3.886l-6.826 17.075c-.597 1.496-2.399 2.197-4.003 1.556l-2.049-.82c-.802-.32-3.574-2.813-5.789-4.816M182.347 150.474l-14.498 1.65a.772.772 0 0 1-.845-.673l-1.717-15.097a.77.77 0 0 1 .672-.845l18.682-2.124a.764.764 0 0 1 .845.672l1.241 10.912" mask="url(#b)"/>
        <path stroke="#024B68" stroke-linecap="round" stroke-linejoin="round" stroke-width=".5" d="M182.347 150.474l-.476-4.184a.765.765 0 0 1 .672-.845l4.184-.476-4.38 5.505zM173.85 137.675l1.179 10.361M171.482 137.945l1.18 10.36M169.114 138.214l1.18 10.36M182.13 138.986l-3.298.375M180.293 137.524l.375 3.298M180.718 102.8c.259-.603.554-1.22 1.204-1.456.988-.361 2.092.177 2.467 1.202 1.038 2.841 2.174 5.005 3.03 7.347.093.254.171.51.235.766l.001.002h-.001c.881 3.53-.806 7.144-4.301 8.42-3.494 1.278-7.394 1.182-8.766-2.57-1.371-3.754-2.313-6.698-.39-7.657 3.964-1.98 5.557-3.811 6.521-6.055z" mask="url(#b)"/>
        <path stroke="#024B68" stroke-linecap="round" stroke-linejoin="round" stroke-width=".5" d="M174.85 117.24c.04.109.084.217.127.325.21.526.185 1.086-.026 1.549a1.712 1.712 0 0 1-.931.904c-4.59 1.79-4.968 1.477-6.65 1.647-2.33.236-2.493-1.691-1.512-2.425 2.117-1.584.996-6.455 5.605-8.32.655-.264 1.412.088 1.69.787M136.203 9.693c1.887.985 2.556 2.397 2.425 4.44 1.543 2.904 2.049 5.905 2.049 8.084 0 .679-.288 1.253-.75 1.678-.462.424-1.1.7-1.797.78-.217.024-2.29.108-4.797-.38-2.51-.487-5.454-1.546-7.417-3.808-.612-.706-1.168-1.467-1.571-2.297-.403-.83-.652-1.726-.652-2.702 0-1.951.847-3.716 2.218-4.994a7.468 7.468 0 0 1 1.204-.914" mask="url(#b)"/>
        <path stroke="#024B68" stroke-linecap="round" stroke-linejoin="round" stroke-width=".5" d="M124.928 16.03c1.384-2.294 3.176-1.173 4.06-4.375.882-3.203 4.436-5.261 6.435-5.261 2 0 2.394.077 2.938.22v2.05c-1.643.243-4.114 1.31-4.114 2.787 0 1.478 1.582 2.835 3.533 2.835.343 0 1.03.225 1.56 1.476M125.124 11.354l-.292-6.451h2.908l.293 1.188M135.166 6.404c-.508-2.218-2.733-2.528-4.535-1.881M128.795 12.25c-2.812-2.776-1.878-5.465-.051-6.882" mask="url(#b)"/>
        <path stroke="#024B68" stroke-linecap="round" stroke-linejoin="round" stroke-width=".5" d="M128.744 5.368V3.016h1.887v2.572M130.994 2.62h1.422v1.605M132.945 2.62h1.422V4.8M4.675 176.196c-2.347-2.796-4.8-5.666-.264-7.398.946-.362 1.914-.76 2.93-1.103 2.929-.987 12.358-1.89 13.725 1.373.762 1.818-.293 2.508-1.438 2.88-3.173 1.031-2.175 1.112-4.697 2.601-1.304.77-2.272 1.872-6.744 2.762-1.642.327-2.481.114-3.512-1.115zM14.25 177.597c-1.114.298-2.568.868-4.912 2.46-1.384.942-1.82 1.69-1.668 3.287.348 3.634.674 7.396 5.088 5.377.923-.421 1.885-.831 2.843-1.316 2.757-1.395 10.012-7.483 8.646-10.746-.762-1.818-1.994-1.55-3.063-.995-.866.45-1.422.703-1.849.854" mask="url(#b)"/>
        <path stroke="#024B68" stroke-linecap="round" stroke-linejoin="round" stroke-width=".5" d="M19.335 176.518c-1.48.596-3.81-.917-5.27 1.362-.967 1.508-1.674 3.63-3.1 3.882-.903.159-1.446.017-2.304-.376M23.954 172.31l-4.185 1.753-1.891-1.184M19.748 174.072l-.588 2.38M42.042 65.842c-.406-.738-.151-1.658.568-2.054a1.488 1.488 0 0 1 1.6.117l4.789 2.778c.913.57 2.223 1.39 3.159-.37.352-.66.967-1.163 1.664-1.546 2.079-1.144 4.66-.53 6.096 1.342.287-.38.656-.706 1.098-.95 1.606-.882 3.614-.361 4.66 1.15a3.654 3.654 0 0 1 3.13 1.909c.969 1.76.362 3.955-1.356 4.9a2.646 2.646 0 0 1-.13.067c.315.236.585.54.788.909.746 1.358.278 3.049-1.046 3.777a2.655 2.655 0 0 1-.99.315c-.03 1.606-.874 3.136-2.355 3.95a4.505 4.505 0 0 1-2.712.527 2.66 2.66 0 0 1-1.305 1.72 2.667 2.667 0 0 1-2.285.13 4.209 4.209 0 0 1-4.611 1.544c-.184.193-.4.36-.645.496-1.286.707-2.906.246-3.683-1.025a2.59 2.59 0 0 1-.376.25c-1.306.719-2.961.216-3.698-1.123a2.893 2.893 0 0 1-.184-.407c-1.454.236-2.98-.47-3.746-1.864a3.687 3.687 0 0 1-.446-2.114 4.711 4.711 0 0 1-.92-1.182c-1.225-2.226-.457-5 1.715-6.194.05-.028.1-.054.15-.08-.057-.083-.102-.177-.162-.262-.837-1.17-.607-2.724.355-3.252.89-.49 1.4.034 1.899-.694a1.515 1.515 0 0 0 .068-1.586c-.3-.546-.752-.565-1.09-1.178z" mask="url(#b)"/>
        <path stroke="#024B68" stroke-linecap="round" stroke-linejoin="round" stroke-width=".5" d="M40.127 80.13a2.868 2.868 0 0 1 1.335-1.594c1.414-.778 3.207-.232 4.004 1.217" mask="url(#b)"/>
        <path stroke="#024B68" stroke-linecap="round" stroke-linejoin="round" stroke-width=".5" d="M45.856 81.14c-.726-1.32-.27-2.964 1.017-3.673a2.607 2.607 0 0 1 1.538-.307M38.963 74.915a2.854 2.854 0 0 1 1.531-1.402c1.505-.584 3.22.19 3.827 1.729M61.31 70.692a3.213 3.213 0 0 1-1.504-1.663c-.651-1.621.107-3.443 1.694-4.068M58.895 75.24a3.031 3.031 0 0 1-.288-2.099 2.872 2.872 0 0 1 3.52-2.166M55.659 80.327a2.146 2.146 0 0 1-1.395-.606c-.857-.828-.905-2.19-.107-3.042" mask="url(#b)"/>
        <path stroke="#024B68" stroke-linecap="round" stroke-linejoin="round" stroke-width=".5" d="M51.878 82.5a2.064 2.064 0 0 0 1.456-.36c.952-.672 1.171-2.01.49-2.99M54.596 76.513a2.969 2.969 0 0 1-1.338-1.58c-.552-1.514.203-3.17 1.686-3.696M44.71 74.905a3.175 3.175 0 0 1 1.197-1.949 3.163 3.163 0 0 1 3.032-.433M40.276 70.592a2.338 2.338 0 0 1 1.086-1.299c1.152-.633 2.611-.189 3.26.992M64.984 65.63c1.052.549 1.483 1.848.963 2.902M41.175 145.51c1.413-5.314 10.113-7.363 9.953-1.391.366 1.97 3.135 3.932 4.974 2.346 1.204-1.037 1.234-2.026 2.408-3.071 2.117-1.885 5.247-1.824 6.991.135 2.695 3.026-.32 7.836-2.976 10.2-4.04 3.598-10.576 2.853-13.575-.516-3-3.37-2.317-4.948-1.675-8.741-.78-1.39-4.14.974-3.306 3.08M63.075 138.536c-1.04 1.56-1.254 2.575-1.085 3.482M60.89 136.555c-2.707 3.379-2.11 5.258-3.37 8.046M97.2 94.287a3.987 3.987 0 0 1-.603 5.606c-1.1.887-2.261 1.466-3.386.783-1.61-.977-.872-1.391-2.137.334-.348.476-.983.775-1.527.693-3.372-.505.17 1.376-2.528 3.55a3.672 3.672 0 0 1-5.161-.556c-2.026-2.514-.345-7.767 2.065-9.709 3.472-2.796 10.165-4.565 13.278-.701zM104.504 104.346a3.987 3.987 0 0 0-5.606-.603c-1.1.887-1.913 1.897-1.485 3.142.612 1.78 1.172 1.148-.782 2.017-.539.239-.966.796-1.002 1.344-.225 3.403-1.308-.459-4.006 1.715a3.67 3.67 0 0 0-.556 5.161c2.026 2.514 7.516 1.99 9.926.048 3.471-2.796 6.624-8.96 3.511-12.824z" mask="url(#b)"/>
        <path stroke="#024B68" stroke-linecap="round" stroke-linejoin="round" stroke-width=".5" d="M90.601 102.27a2.294 2.294 0 0 1-.346 3.216l-8.747 7.047M95.411 108.917a2.294 2.294 0 0 0-3.215-.346l-8.38 6.752M96.285 109.186c-.923-.634-1.324-2.347-.893-3.942M90.677 101.364c.422 1.037 2.01 1.793 3.661 1.712M171.42 4.787l4.485-2.974 10.822 16.32-17.172 11.387-10.822-16.32 4.573-3.031" mask="url(#b)"/>
        <path stroke="#024B68" stroke-linecap="round" stroke-linejoin="round" stroke-width=".5" d="M164.234 8.28l4.998-3.315c.481-.319 1.162-.147 1.513.382l.168.254c.351.53.244 1.223-.237 1.542l-4.997 3.315c-.481.318-1.162.146-1.513-.383l-.169-.254c-.351-.529-.244-1.223.237-1.542zM171.737 16.014c-.058.066.158.174.467.328.155.076.107 1.574.294 1.494.163-.071 1.52-.787 1.19.132-1.526 3.852-1.024 2.567-.24 3.91.166.39.184.845.013 1.27a1.655 1.655 0 0 1-2.156.92c-.353-.14-.567-.402-.775-.654l-.1-.123c-.196-.24-.249-.305-.564-.195-.173.06-.357.085-.543.076a1.68 1.68 0 0 1-1.464-1.01 1.658 1.658 0 0 1 .873-2.176c1.14-.486 1.066.38 1.843-1.355.177-.396.987-2.255 1.276-2.966M175.077 14.999c.058-.066-.675.963-.983.81-.155-.077-.107-1.575-.294-1.495-.162.071-1.316.271-.985-.648.297-.749.313-.788.469-1.205.646-1.73.197-1.107-.433-2.19a1.647 1.647 0 0 1-.014-1.268 1.653 1.653 0 0 1 2.156-.922c.352.142.567.402.775.654l.1.123c.196.24.249.305.563.195a1.45 1.45 0 0 1 .544-.076 1.68 1.68 0 0 1 1.464 1.01 1.66 1.66 0 0 1-.873 2.177c-1.14.486-1.067-.38-1.843 1.355a70.64 70.64 0 0 0-.76 1.829M89.841 70.362c.063-.04.128-.076.194-.111 2.311-1.24 5.423.069 6.95 2.919 1.527 2.85.892 6.166-1.419 7.404a4.142 4.142 0 0 1-.2.1l-5.525-10.312zM104.262 73.14c-.305-.57-2.342-4.44-3.226-6.01M96.985 73.17l5.67-3.038M90.48 79.284c-.96-.29-1.628-.881-1.495-1.32.132-.44 1.017-.561 1.976-.271.959.29 1.628.88 1.495 1.32-.132.44-1.017.56-1.976.27z" mask="url(#b)"/>
        <path stroke="#024B68" stroke-linecap="round" stroke-linejoin="round" stroke-width=".5" d="M89.028 78.178c-1.957-2.23-6.475-8.069-.707-10.716 3.84-1.76 8.137.686 10.618 4.661 1.31 2.1 1.423 2.983 2.433 2.442.939-.503.075-1.562-.735-3.212-.92-1.873-2.057-4.146-.462-5.869M90.305 179.922l3.307-.3M92.109 181.425l-.301-3.307M93.237 184.311l-2.755.573c-.52.108-1.883-2.295-2.11-4.786-.227-2.492.68-5.1 1.21-5.088l2.814.065M111.329 188.646l-2.496.596-.433.04c-.963.087-1.623-.997-1.874-1.929-.23-.85-1.127-4.032-1.845-5.023l-.014-.063c5.67-1.967 5.262-6.313-.66-7.246l.003-.065c.527-1.104.836-4.394.908-5.272.078-.962.532-2.147 1.495-2.235l.433-.04 2.562.136M109.739 171.185l.288 3.178" mask="url(#b)"/>
        <path stroke="#024B68" stroke-linecap="round" stroke-linejoin="round" stroke-width=".5" d="M99.916 175.065c4.819.937 5.29 6.107.719 7.9l.024.094c.006.034.008.067.01.1.03.296-.145.573-.426.795-.348.286-.855.478-1.324.516-.581.06-1.101-.104-1.177-.61-.052-.35-.458-.208-.945-.164-.975.09-1.486-.05-1.718-.3-.546-.412-.123-1.223.218-1.766.499-.793.824-1.013.733-2.229-.13-1.213-.49-1.37-1.123-2.06-.434-.473-.996-1.194-.533-1.697.182-.288.659-.518 1.635-.607.487-.044.91.023.9-.33-.017-.512.465-.767 1.047-.814.468-.047 1.002.05 1.395.27.316.167.54.406.563.705a.64.64 0 0 1 .008.1l-.006.097z" mask="url(#b)"/>
        <path stroke="#024B68" stroke-width=".5" d="M98.827 150.215a4.998 4.998 0 0 1-9.508 3.08 4.998 4.998 0 0 1 9.508-3.079z" mask="url(#b)"/>
        <path stroke="#024B68" stroke-linecap="round" stroke-linejoin="round" stroke-width=".5" d="M97.013 134.881l4.277 13.208-4.277-13.208zm3.018-.977l4.277 13.208-4.277-13.208zm3.02-.978l4.276 13.21-4.276-13.21zm5.33 23.593l-1.728-5.334a1.02 1.02 0 0 1 .654-1.28l5.334-1.727-4.26 8.341zm-16.743-9.653l-3.687-11.725a1.031 1.031 0 0 1 .654-1.28l16.591-5.373a1.02 1.02 0 0 1 1.28.654l6.165 19.036-21.004-1.312zm16.742 9.653l-11.257 3.646c-.519.167-1.092-.144-1.28-.654l-.867-2.334 13.404-.658z" mask="url(#b)"/>
        <path stroke="#024B68" stroke-width=".5" d="M96.339 151.021a2.382 2.382 0 1 1-4.532 1.467 2.382 2.382 0 0 1 4.532-1.467z" mask="url(#b)"/>
        <path stroke="#024B68" stroke-linecap="round" stroke-linejoin="round" stroke-width=".5" d="M90.354 148.416l-4.721-.904-.681 4.812 4.14 1.094-2.713 3.313 3.377 3.563 3.53-3.604M54.634 13.15l-2.78 4.174c-.257.386-.175.952.21 1.209 1.71 1.139 2.322 1.542 3.532 2.342M43.49 19.245l-1.566 1.448M50.813 24.123l-.733 2.003" mask="url(#b)"/>
        <path stroke="#024B68" stroke-width=".5" d="M53.799 11.705c3.365 2.242 4.514 6.43 2.566 9.354-1.948 2.924-6.255 3.478-9.62 1.236-3.366-2.242-4.515-6.43-2.567-9.354 1.949-2.924 6.256-3.478 9.62-1.236zM55.453 4.54c4.558 3.036 7.842 6.116 7.334 6.878-.508.763-4.616-1.08-9.174-4.116-4.56-3.037-7.842-6.117-7.334-6.88.508-.763 4.616 1.08 9.174 4.117z" mask="url(#b)"/>
        <path stroke="#024B68" stroke-linecap="round" stroke-linejoin="round" stroke-width=".5" d="M53.31 7.755l-1.6 2.404M43.29 13.982l-1.65-4.71M43.939 7.628l3.897 2.725M42.726 4.982a2.291 2.291 0 0 1 .638 3.185 2.297 2.297 0 1 1-.638-3.185zM52.847 26.34l-1.006.711c-.38.268-.812.53-1.197.272-1.71-1.139-9.91-6.606-11.114-7.414M48.443 14.051l-1.84 2.764M46.14 14.512l2.765 1.841" mask="url(#b)"/>
    </g>
</svg>
