<svg xmlns="http://www.w3.org/2000/svg" width="367" height="174" viewBox="0 0 367 174">
    <g fill="none" fill-rule="nonzero" opacity=".8">
        <path fill="#FFF" d="M121.66 52.927h-1.77v-91.711h102.935v1.772H121.66z"/>
        <path fill="#FFF" d="M160.011-1.01l2.552 7.226-1.673.591-2.552-7.225z"/>
        <path fill="#FFF" d="M153.997 7.263c-5.126-3.6-7.613-9.759-7.186-17.743.327-5.93 2.11-10.747 2.186-10.95l.276-.71.73.153c7.99 1.749 13.542 5.348 16.532 10.747 4.598 8.288 1.382 17.692 1.256 18.072l-1.658-.583c.025-.102 3.065-9.049-1.13-16.653-2.639-4.74-7.538-8.01-14.599-9.682-1.13 3.523-5.327 18.908 4.598 25.904l-1.005 1.445zM185.304 7.288l-1.432-1.04c2.161-3.04 3.292-6.336 3.367-9.808.075-4.284-1.508-8.871-4.673-13.611-1.985 1.14-7.89 4.79-11.458 10.24l-1.457-.989c4.573-6.995 12.487-11.05 12.814-11.228l.678-.355.428.633c8.316 11.964 5.527 20.835 1.733 26.158z"/>
        <path fill="#024B68" d="M149.776 5.666v.887c0 11.583 7.236 21.494 17.362 25.397a26.665 26.665 0 0 0 9.573 1.774c3.367 0 6.608-.633 9.573-1.774 10.151-3.903 17.362-13.814 17.362-25.397v-.887h-53.87zm26.935 26.284c-13.593 0-24.699-10.924-25.151-24.51h50.328c-.478 13.586-11.584 24.51-25.177 24.51z"/>
        <path fill="#024B68" d="M166.66 28.604c-7.01-5.094-11.205-13.332-11.205-22.051h1.758c0 8.136 3.92 15.842 10.478 20.607l-1.03 1.444zM163.269 15.374a27.621 27.621 0 0 1-1.458-8.821h1.76c0 2.813.452 5.602 1.356 8.238l-1.658.583zM165.078 19.53c-.377-.71-.729-1.419-1.055-2.154l1.608-.71c.301.685.628 1.369.98 2.028l-1.533.836zM200.355 7.313l-1.583-.785 8.668-17.439c1.382-2.788.277-6.184-2.487-7.578a5.574 5.574 0 0 0-7.513 2.509l-5.502 11.051-1.583-.786 5.502-11.05c1.81-3.65 6.257-5.146 9.875-3.296a7.256 7.256 0 0 1 3.668 4.284c.603 1.875.478 3.903-.402 5.652l-8.643 17.438z"/>
        <path fill="#FFF" d="M176.988 2.295l-1.608-.71c.025-.05 2.085-4.765 3.944-10.696l1.684.532c-1.91 6.033-4.02 10.823-4.02 10.874z"/>
        <path fill="#024B68" d="M152.51 32.1h43.857v1.827H152.51zM200.354 32.1h4.712v1.827h-4.712z"/>
        <g transform="translate(261.734 -27.268)">
            <path fill="#024B68" d="M37.587 38.742l-3.993-3.964H5.437V8.415H46.03v10.859h-1.78v-9.09H7.217V33.01h27.114l4.502 4.47z"/>
            <path fill="#024B68" d="M40.957 23.03v42.02L54.23 51.687H84.45V23.031H40.957zm41.682 26.83H53.464L42.718 60.698V24.833h39.92V49.86z"/>
            <ellipse cx="53.824" cy="36.733" fill="#FFF" rx="2.356" ry="2.375"/>
            <ellipse cx="62.523" cy="36.733" fill="#FFF" rx="2.356" ry="2.375"/>
            <ellipse cx="71.222" cy="36.733" fill="#FFF" rx="2.356" ry="2.375"/>
            <path fill="#024B68" d="M16.673 26.685h11.598v1.827H16.673z"/>
            <path fill="#FFF" d="M77.202 56.281h1.812v29.596h-1.812z"/>
        </g>
        <g>
            <path fill="#024B68" d="M348.112 106.532v48.588h18.116v-48.588h-18.116zm16.39 46.825h-14.664V108.32h14.664v45.037z"/>
            <path fill="#FFF" d="M351.612 153.357v5.927h10.303v-5.927h-10.303zm8.577 4.138h-6.852v-2.35h6.852v2.35z"/>
            <path fill="#FFF" d="M355.9 158.39h1.726v25.06H355.9z"/>
            <path fill="#024B68" d="M351.07 99.098v8.2h12.175v-8.2H351.07zm10.45 6.412h-8.725v-4.624h8.725v4.624z"/>
            <path fill="#024B68" d="M348.186 94.602v6.387h18.116v-6.387h-18.116zm16.415 4.598h-14.69v-2.81h14.665v2.81h.025zM361.915 144.876h-1.726V114.91h-11.214v-1.788h12.94zM360.189 148.708h1.725v1.277h-1.725z"/>
        </g>
        <g>
            <path fill="#024B68" d="M287.445 165.415a6.674 6.674 0 0 0-1.187-.102c-.407 0-.814.034-1.188.102-2.782.547-4.885 3.044-4.885 6.02 0 3.386 2.714 6.123 6.073 6.123 3.359 0 6.073-2.77 6.073-6.123.034-2.976-2.103-5.438-4.886-6.02zm-1.187 9.749c-2.036 0-3.698-1.676-3.698-3.729 0-2.052 1.662-3.728 3.698-3.728s3.698 1.676 3.698 3.728c0 2.053-1.628 3.729-3.698 3.729zM282.378 133.816l-4.654-2.7 1.18-2.05 2.597 1.504 10.419-18.454-44.475-25.834-10.419 18.453 20.063 11.653-1.147 2.085-22.153-12.85 12.78-22.588 48.588 28.227z"/>
            <path fill="#FFF" d="M244.916 85.94l-8.935-5.194-8.632 15.24 8.935 5.195 2.057 1.196 8.632-15.241-2.057-1.196zm-7.418 13.157l-6.878-3.999 6.271-11.106 6.879 3.998-6.272 11.107z"/>
            <path fill="#024B68" d="M275.398 103.983l-.371-1.127-21.512 7.005.37 1.128a60.514 60.514 0 0 1 1.18 4.237c.237 1.025.473 2.085.675 3.144 2.529 13.909.169 28.432-6.845 40.837-6.036 10.662-14.836 18.966-25.491 24.16h5.058c9.272-5.433 16.994-13.259 22.49-22.964 8.396-14.831 10.385-32.635 5.563-48.97l17.028-5.536a81.204 81.204 0 0 1 3.102 31.302c-1.079 11.38-4.518 22.213-10.149 32.192-2.866 5.057-6.204 9.739-9.98 13.976h3.135a80.265 80.265 0 0 0 8.868-12.78c5.8-10.287 9.34-21.461 10.453-33.182.169-1.777.27-3.589.337-5.366.034-.922.034-1.81.034-2.733a85.186 85.186 0 0 0-3.945-25.323z"/>
            <path fill="#024B68" d="M269.8 135.08l-2.326-.307c.101-.922.236-1.845.303-2.734.102-.99.169-2.016.236-3.007l2.36.137a94.344 94.344 0 0 1-.235 3.075c-.101.957-.203 1.914-.337 2.837zM267.474 146.631a83.775 83.775 0 0 1-7.823 18.795c-3.742 6.63-8.294 12.644-13.588 17.907h-3.406a79.908 79.908 0 0 0 14.971-19.103c3.27-5.809 5.833-11.96 7.587-18.282l2.259.683zM272.97 116.456c-.303-1.161-1.045-2.118-2.09-2.733-.675-.376-1.45-.616-2.226-.616a4.49 4.49 0 0 0-4.316 5.673c.304 1.162 1.045 2.119 2.09 2.734.675.41 1.45.615 2.226.615a4.49 4.49 0 0 0 4.316-5.673zm-2.461 2.222c-.371.683-1.08 1.06-1.821 1.06-.371 0-.708-.103-1.045-.274-1.012-.581-1.35-1.88-.776-2.905.371-.683 1.079-1.06 1.82-1.06.372 0 .709.103 1.046.274.978.615 1.349 1.914.776 2.905zM291.616 117.516l-2.056-1.196-4.822 8.509 2.057 1.196 9.71 5.638 4.822-8.509-9.71-5.638zm4.013 10.867l-7.654-4.443 2.461-4.374 7.654 4.443-2.461 4.374zM285.53 145.72h2.428v23.021h-2.429zM285.53 52.165h2.428v45.553h-2.429z"/>
        </g>
        <g>
            <path fill="#024B68" d="M24.852 16.227l1.282 1.282L2.105 41.537l-1.28-1.281zM13.265 15.807l1.28 1.281L1.37 30.265.088 28.984z"/>
            <g fill="#024B68">
                <path d="M10.388-.363c0 4.795 2.083 9.363 5.74 12.525l-1.168 1.33A18.293 18.293 0 0 1 8.61-.362c0-6.049 2.972-11.445 7.569-14.784h3.352c-5.435 2.761-9.143 8.359-9.143 14.784zM45.842-.363c0 .302 0 .578-.026.879-.228 4.92-2.463 9.563-6.197 12.851l-1.193-1.305A16.691 16.691 0 0 0 44.038.516c.026-.301.026-.577.026-.879 0-.3 0-.577-.026-.878-.304-6.05-3.936-11.27-9.117-13.906h3.352c4.369 3.188 7.264 8.208 7.543 13.906.026.301.026.602.026.878z"/>
            </g>
            <path fill="#FFF" d="M36.082-1.228c-.449-4.721-4.385-8.438-9.193-8.438-5.082 0-9.242 4.169-9.242 9.317 0 5.124 4.135 9.318 9.242 9.318 4.808 0 8.744-3.717 9.193-8.439.025-.276.05-.577.05-.879 0-.301-.025-.577-.05-.879zm-9.193 8.439c-4.135 0-7.499-3.39-7.499-7.56 0-4.169 3.364-7.559 7.5-7.559 3.836 0 7 2.913 7.448 6.68.025.277.05.578.05.88 0 .3-.025.602-.05.878-.449 3.767-3.612 6.68-7.449 6.68z"/>
            <path fill="#024B68" d="M27.07-.897h76.116V.93H27.07z"/>
        </g>
        <g>
            <path fill="#024B68" d="M33.778 75.986H16.92c-3.657 0-6.613 3.13-6.613 6.942 0 3.208 2.08 5.917 4.885 6.706a6.249 6.249 0 0 0 1.728.236h16.983c.601 0 1.202-.105 1.753-.289 2.73-.841 4.735-3.524 4.735-6.68.025-3.786-2.956-6.915-6.613-6.915zm0 12.07H16.92c-2.68 0-4.86-2.288-4.86-5.102 0-2.182 1.303-4.05 3.132-4.76a4.723 4.723 0 0 1 1.728-.341h16.858c2.68 0 4.86 2.288 4.86 5.101.024 2.814-2.155 5.102-4.86 5.102z"/>
            <path fill="#024B68" d="M25.168 161.12c-5.583 0-10.149-4.646-10.149-10.385V88.043h1.737v62.692c0 4.748 3.772 8.608 8.412 8.608 4.64 0 8.411-3.86 8.411-8.608V88.17h1.737v62.565c-.024 5.739-4.565 10.385-10.148 10.385z"/>
            <path fill="#FFF" d="M25.53 114.351h9.424v1.827H25.53zM30.967 97.91h3.987v1.826h-3.987zM29.88 131.16h4.711v1.826H29.88z"/>
            <path fill="#024B68" d="M27.342 76.716h1.812v2.923h-1.812zM15.02 76.716h1.811v2.923H15.02zM30.967 85.851h1.812v2.923h-1.812z"/>
        </g>
        <g>
            <path fill="#024B68" d="M124.408 79.73h51.468v1.826h-51.468zM124.408 74.248h51.468v1.827h-51.468z"/>
            <g fill="#024B68">
                <path d="M175.8 124.975v2.625c-5.152-6.015-12.779-9.812-21.24-9.812a27.828 27.828 0 0 0-16.44 5.352l-1.036-1.453c5.102-3.72 11.138-5.683 17.477-5.683 8.308 0 15.834 3.44 21.239 8.97zM175.8 164.731v2.625c-5.43 5.53-12.93 8.97-21.24 8.97-6.389 0-12.475-2.013-17.627-5.784l1.035-1.428c4.824 3.568 10.557 5.454 16.567 5.454 8.511-.025 16.113-3.822 21.265-9.837z"/>
            </g>
            <path fill="#FFF" d="M153.766 129.787h1.812v16.077h-1.812z"/>
            <path fill="#FFF" d="M154.49 144.402h8.7v1.827h-8.7z"/>
            <path fill="#024B68" d="M165.418 112.248l-1.796-.025.308-17.722c.025-1.876-.668-3.651-2.002-4.995-1.335-1.344-3.106-2.13-4.98-2.155h-.129c-3.876 0-7.033 3.068-7.11 6.896l-.308 17.418-1.797-.025.308-17.418c.077-4.843 4.159-8.722 9.061-8.646 2.362.051 4.595.99 6.238 2.688 1.643 1.699 2.541 3.93 2.515 6.262l-.308 17.722z"/>
            <path fill="#FFF" d="M148.709 102.303l9.06.16-.033 1.827-9.06-.16z"/>
        </g>
        <g>
            <g fill="#FFF">
                <path d="M64.894 138.045v6.177H63.15v-6.177c0-2.237-1.793-4.092-4.01-4.092-1.368 0-2.589.711-3.31 1.804v-2.516a5.611 5.611 0 0 1 3.31-1.068c3.163 0 5.753 2.644 5.753 5.872z"/>
                <path d="M68.877 155.355c-3.162 0-5.751-2.618-5.751-5.872v-5.846h1.743v5.846c0 2.262 1.792 4.092 4.008 4.092s4.01-1.83 4.01-4.092v-6.151h1.742v6.151c0 3.254-2.59 5.872-5.752 5.872z"/>
                <path d="M84.364 151.745h-1.742v-13.7c0-2.262-1.793-4.092-4.01-4.092-2.215 0-4.008 1.83-4.008 4.092v7.981h-1.743v-7.981c0-3.228 2.565-5.872 5.752-5.872 3.162 0 5.751 2.618 5.751 5.872v13.7z"/>
            </g>
            <path fill="#FFF" d="M82.652 152.142h1.812v12.788h-1.812z"/>
            <path fill="#024B68" d="M84.417 151.463c-.347-.026-.694-.051-1.016-.051-.247 0-.47 0-.718.025-6.265.382-11.267 5.757-11.267 12.304v11.055h1.733v-11.055c0-5.502 4.136-10.037 9.36-10.495.273-.026.57-.026.868-.026.297 0 .594.026.866.026 5.25.458 9.361 4.993 9.361 10.495v11.055h1.734v-11.055c.024-6.42-4.805-11.718-10.921-12.278z"/>
            <path fill="#024B68" d="M72.503 163.834h22.834v1.827H72.503z"/>
        </g>
    </g>
</svg>
