<svg width="24" height="24" viewBox="0 0 24 24" xmlns="http://www.w3.org/2000/svg"><title>C5DEA016-628D-4003-BEFC-1E267E0C5D01</title><g fill="#FF6F61" fill-rule="evenodd"><path d="M12.15 4.285l-.138.001c-4.335.076-7.8 3.596-7.725 7.848.036 2.074.847 3.999 2.286 5.422 1.444 1.428 3.388 2.233 5.415 2.159a7.88 7.88 0 0 0 5.493-2.36c1.475-1.491 2.267-3.44 2.232-5.488-.075-4.278-3.385-7.582-7.564-7.582m-.298 16.717a8.716 8.716 0 0 1-6.182-2.533c-1.679-1.66-2.627-3.902-2.668-6.312C2.915 7.196 6.947 3.087 11.988 3c4.977-.048 8.922 3.798 9.01 8.844.042 2.397-.883 4.677-2.603 6.415A9.16 9.16 0 0 1 12.012 21c-.054.002-.107.002-.161.002"/><path d="M11 11.76c0-.42.333-.76.75-.76.414 0 .75.328.75.76v3.48c0 .42-.333.76-.75.76a.747.747 0 0 1-.75-.76v-3.48zM11.75 9a.75.75 0 0 1 .013 1.499l-.012.001a.75.75 0 0 1-.014-1.5h.014z"/></g></svg>